<?xml version="1.0" encoding="UTF-8" standalone="no"?>
<!-- Created with Inkscape (http://www.inkscape.org/) -->

<svg
   xmlns:dc="http://purl.org/dc/elements/1.1/"
   xmlns:cc="http://creativecommons.org/ns#"
   xmlns:rdf="http://www.w3.org/1999/02/22-rdf-syntax-ns#"
   xmlns:svg="http://www.w3.org/2000/svg"
   xmlns="http://www.w3.org/2000/svg"
   xmlns:sodipodi="http://sodipodi.sourceforge.net/DTD/sodipodi-0.dtd"
   xmlns:inkscape="http://www.inkscape.org/namespaces/inkscape"
   width="210mm"
   height="297mm"
   viewBox="0 0 744.09448819 1052.3622047"
   id="svg7420"
   version="1.1"
   inkscape:version="0.91 r13725"
   sodipodi:docname="dropdowns.svg">
  <defs
     id="defs7422" />
  <sodipodi:namedview
     id="base"
     pagecolor="#ffffff"
     bordercolor="#666666"
     borderopacity="1.0"
     inkscape:pageopacity="0.0"
     inkscape:pageshadow="2"
     inkscape:zoom="0.5"
     inkscape:cx="952.26151"
     inkscape:cy="458.35929"
     inkscape:document-units="px"
     inkscape:current-layer="layer1"
     showgrid="false"
     inkscape:window-width="1856"
     inkscape:window-height="1057"
     inkscape:window-x="-8"
     inkscape:window-y="-8"
     inkscape:window-maximized="1" />
  <metadata
     id="metadata7425">
    <rdf:RDF>
      <cc:Work
         rdf:about="">
        <dc:format>image/svg+xml</dc:format>
        <dc:type
           rdf:resource="http://purl.org/dc/dcmitype/StillImage" />
        <dc:title></dc:title>
      </cc:Work>
    </rdf:RDF>
  </metadata>
  <g
     inkscape:label="Layer 1"
     inkscape:groupmode="layer"
     id="layer1">
    <rect
       style="opacity:1;fill:#7ddef6;fill-opacity:1;stroke:#000000;stroke-width:5.1872201;stroke-miterlimit:4;stroke-dasharray:none;stroke-opacity:1"
       id="rect8244"
       width="382.1535"
       height="989.04846"
       x="192.07759"
       y="43.212585"
       rx="4.6353002"
       ry="6.7835107" />
    <g
       id="g8165"
       transform="matrix(1.331,0,0,1.331,-624.53917,-287.21028)">
      <rect
         transform="matrix(1,0,-0.21958093,0.97559429,0,0)"
         ry="5.0965514"
         rx="3.4825711"
         y="214.38002"
         x="312.21103"
         height="47.95612"
         width="130.96997"
         id="rect7968-6-8"
         style="opacity:1;fill:#f38451;fill-opacity:1;stroke:#000000;stroke-width:1.67658556;stroke-miterlimit:4;stroke-dasharray:none;stroke-opacity:1" />
      <rect
         transform="matrix(1,0,-0.21958093,0.97559429,0,0)"
         ry="5.0965514"
         rx="3.4825711"
         y="206.6924"
         x="306.77298"
         height="47.95612"
         width="130.96997"
         id="rect7968-6"
         style="opacity:1;fill:#f38451;fill-opacity:1;stroke:#000000;stroke-width:1.67658556;stroke-miterlimit:4;stroke-dasharray:none;stroke-opacity:1" />
      <text
         sodipodi:linespacing="125%"
         id="text7985"
         y="237.80341"
         x="292.5575"
         style="font-style:normal;font-weight:normal;font-size:20.13137627px;line-height:125%;font-family:sans-serif;letter-spacing:0px;word-spacing:0px;fill:#000000;fill-opacity:1;stroke:none;stroke-width:1px;stroke-linecap:butt;stroke-linejoin:miter;stroke-opacity:1"
         xml:space="preserve"><tspan
           style="font-style:normal;font-variant:normal;font-weight:normal;font-stretch:extra-condensed;font-size:32.9422493px;font-family:'Gill Sans MT Ext Condensed Bold';-inkscape-font-specification:'Gill Sans MT Ext Condensed Bold, Extra-Condensed';letter-spacing:1.63979208px;fill:#ffffff;fill-opacity:1"
           y="237.80341"
           x="292.5575"
           id="tspan7987"
           sodipodi:role="line">STATES</tspan></text>
      <path
         inkscape:connector-curvature="0"
         id="path8082"
         d="m 252.95262,246.34503 c 0.0373,0.16444 -0.0225,0.33444 0,0.49973 0.0721,0.53162 0.32402,1.0062 0.54178,1.49924 0.11287,0.24987 0.22575,0.49975 0.33862,0.74963 0.0677,0.22904 0.10758,0.46671 0.20317,0.68714 0.0419,0.0967 0.13844,0.16457 0.20316,0.24986 0.0933,0.12303 0.1835,0.24813 0.2709,0.37482 0.0706,0.10243 0.14431,0.20374 0.20318,0.31233 0.21328,0.39348 0.14666,0.42028 0.40633,0.74962 0.10372,0.13153 0.2479,0.23536 0.33862,0.37481 0.0479,0.0736 0.0215,0.17534 0.0676,0.24987 0.0475,0.0766 0.16034,0.1084 0.20317,0.18741 0.0303,0.0558 -0.0214,0.12815 0,0.1874 0.0739,0.20438 0.21289,0.20084 0.33863,0.37481 0.0396,0.0549 0.0359,0.12851 0.0676,0.1874 0.41729,0.76982 -0.18882,-0.58495 0.20317,0.49975 0.0876,0.24261 0.27387,0.40066 0.40635,0.62468 0.0582,0.0985 0.0928,0.20734 0.13544,0.31234 0.0251,0.0616 0.0323,0.13023 0.0677,0.18741 0.0561,0.0904 0.15269,0.15675 0.20317,0.24987 0.0202,0.0372 0,0.0833 0,0.12493 0,0.0208 -0.0125,0.0452 0,0.0625 0.0354,0.049 0.0903,0.0834 0.13545,0.12494 0.0225,0.0209 0.06,0.034 0.0677,0.0625 0.0164,0.0606 -0.0375,0.13542 0,0.18739 0.025,0.0347 0.10351,-0.0295 0.13544,0 0.032,0.0295 -0.0202,0.0876 0,0.12494 0.01,0.0186 0.0452,0 0.0677,0 0.16736,0 0.1035,-0.0295 0.20315,0.0625"
         style="fill:none;fill-rule:evenodd;stroke:#000000;stroke-width:1.64835417;stroke-linecap:butt;stroke-linejoin:miter;stroke-miterlimit:4;stroke-dasharray:none;stroke-opacity:1" />
      <path
         inkscape:connector-curvature="0"
         id="path8082-0"
         d="m 379.44673,247.10147 c 0.0287,0.14556 -0.0173,0.29604 0,0.44236 0.0554,0.47058 0.24902,0.89068 0.41637,1.32711 0.0867,0.22119 0.17349,0.44238 0.26024,0.66357 0.052,0.20274 0.0827,0.41313 0.15614,0.60825 0.0322,0.0856 0.10639,0.14568 0.15613,0.22118 0.0717,0.1089 0.14103,0.21964 0.2082,0.33178 0.0543,0.0907 0.1109,0.18035 0.15615,0.27648 0.16391,0.3483 0.11271,0.37202 0.31227,0.66355 0.0797,0.11643 0.19052,0.20834 0.26024,0.33178 0.0368,0.0651 0.0165,0.15521 0.0519,0.22119 0.0365,0.0678 0.12323,0.096 0.15614,0.16589 0.0233,0.0494 -0.0164,0.11344 0,0.16589 0.0568,0.18091 0.16361,0.17778 0.26025,0.33177 0.0304,0.0486 0.0276,0.11376 0.052,0.16589 0.3207,0.68144 -0.14511,-0.51779 0.15614,0.44238 0.0673,0.21475 0.21048,0.35466 0.31229,0.55296 0.0447,0.0872 0.0713,0.18353 0.10409,0.27648 0.0193,0.0545 0.0248,0.11528 0.052,0.16589 0.0431,0.08 0.11734,0.13876 0.15614,0.22119 0.0155,0.0329 0,0.0737 0,0.11058 0,0.0184 -0.01,0.04 0,0.0553 0.0272,0.0434 0.0694,0.0738 0.1041,0.11059 0.0173,0.0185 0.0461,0.0301 0.052,0.0553 0.0126,0.0536 -0.0288,0.11987 0,0.16587 0.0192,0.0307 0.0795,-0.0261 0.10408,0 0.0246,0.0261 -0.0155,0.0776 0,0.1106 0.008,0.0165 0.0347,0 0.052,0 0.12862,0 0.0796,-0.0261 0.15613,0.0553"
         style="fill:none;fill-rule:evenodd;stroke:#000000;stroke-width:1.35956025;stroke-linecap:butt;stroke-linejoin:miter;stroke-miterlimit:4;stroke-dasharray:none;stroke-opacity:1" />
      <path
         inkscape:connector-curvature="0"
         id="path8082-1"
         d="m 390.55237,202.49663 c 0.0331,0.16773 -0.02,0.34113 0,0.50973 0.0639,0.54225 0.28751,1.02633 0.48074,1.52924 0.10013,0.25487 0.2003,0.50974 0.30045,0.76462 0.0601,0.23363 0.0954,0.47605 0.18028,0.70089 0.0371,0.0987 0.12283,0.16787 0.18026,0.25486 0.0827,0.12549 0.16283,0.25309 0.24038,0.38232 0.0627,0.10444 0.12804,0.20781 0.18028,0.31857 0.18924,0.40136 0.13013,0.42869 0.36054,0.76463 0.092,0.13415 0.21997,0.24007 0.30046,0.3823 0.0425,0.0751 0.0191,0.17886 0.06,0.25487 0.0422,0.0782 0.14226,0.11054 0.18026,0.19116 0.0269,0.0569 -0.019,0.13072 0,0.19115 0.0655,0.20847 0.18891,0.20486 0.30048,0.38231 0.0351,0.056 0.0318,0.13109 0.06,0.19116 0.37027,0.78521 -0.16754,-0.59666 0.18028,0.50974 0.0777,0.24746 0.243,0.40868 0.36055,0.63718 0.0517,0.10045 0.0823,0.21149 0.12018,0.31859 0.0223,0.0629 0.0287,0.13283 0.0601,0.19116 0.0497,0.0922 0.13549,0.15988 0.18028,0.25487 0.0179,0.0379 0,0.0849 0,0.12742 0,0.0212 -0.0111,0.0461 0,0.0637 0.0314,0.05 0.0802,0.085 0.12019,0.12744 0.02,0.0213 0.0533,0.0347 0.0601,0.0637 0.0145,0.0618 -0.0333,0.13814 0,0.19114 0.0222,0.0354 0.0918,-0.03 0.12018,0 0.0284,0.0301 -0.0179,0.0894 0,0.12744 0.009,0.019 0.0401,0 0.0601,0 0.1485,0 0.0918,-0.03 0.18026,0.0637"
         style="fill:none;fill-rule:evenodd;stroke:#000000;stroke-width:1.56815827;stroke-linecap:butt;stroke-linejoin:miter;stroke-miterlimit:4;stroke-dasharray:none;stroke-opacity:1" />
    </g>
    <rect
       style="opacity:1;fill:#79a6f6;fill-opacity:1;stroke:#000000;stroke-width:2.23153543;stroke-miterlimit:4;stroke-dasharray:none;stroke-opacity:1"
       id="rect7968-6-8-0"
       width="174.32103"
       height="63.829594"
       x="-91.555763"
       y="-222.06017"
       rx="4.6353021"
       ry="6.7835097"
       transform="matrix(1,0,-0.21958093,0.97559429,0,0)" />
    <rect
       style="opacity:1;fill:#79a6f6;fill-opacity:1;stroke:#000000;stroke-width:2.23153543;stroke-miterlimit:4;stroke-dasharray:none;stroke-opacity:1"
       id="rect7968-6-3"
       width="174.32103"
       height="63.829594"
       x="-98.7938"
       y="-232.29239"
       rx="4.6353021"
       ry="6.7835097"
       transform="matrix(1,0,-0.21958093,0.97559429,0,0)" />
    <text
       xml:space="preserve"
       style="font-style:normal;font-weight:normal;font-size:26.79486275px;line-height:125%;font-family:sans-serif;letter-spacing:0px;word-spacing:0px;fill:#000000;fill-opacity:1;stroke:none;stroke-width:1px;stroke-linecap:butt;stroke-linejoin:miter;stroke-opacity:1"
       x="-6.2992549"
       y="-178.50018"
       id="text7985-4"
       sodipodi:linespacing="125%"><tspan
         sodipodi:role="line"
         id="tspan7987-6"
         x="-6.2992549"
         y="-178.50018"
         style="font-style:normal;font-variant:normal;font-weight:normal;font-stretch:extra-condensed;font-size:43.84613419px;font-family:'Gill Sans MT Ext Condensed Bold';-inkscape-font-specification:'Gill Sans MT Ext Condensed Bold, Extra-Condensed';letter-spacing:2.1825633px;fill:#ffffff;fill-opacity:1">JOBS</tspan></text>
    <path
       style="fill:none;fill-rule:evenodd;stroke:#000000;stroke-width:2.19395947;stroke-linecap:butt;stroke-linejoin:miter;stroke-miterlimit:4;stroke-dasharray:none;stroke-opacity:1"
       d="m -59.013336,-167.13128 c 0.0497,0.21887 -0.0299,0.44514 0,0.66514 0.096,0.70758 0.43127,1.33925 0.72111,1.99549 0.15023,0.33257 0.30048,0.66516 0.45071,0.99775 0.0901,0.30486 0.14319,0.62119 0.27042,0.91459 0.0558,0.1287 0.18426,0.21904 0.2704,0.33256 0.12418,0.16375 0.24424,0.33026 0.36057,0.49889 0.094,0.13633 0.19208,0.27117 0.27043,0.41571 0.28388,0.52372 0.19521,0.55939 0.54083,0.99774 0.13805,0.17507 0.32995,0.31327 0.4507,0.49887 0.0638,0.098 0.0286,0.23338 0.09,0.33258 0.0632,0.10196 0.21341,0.14428 0.27042,0.24944 0.0403,0.0743 -0.0285,0.17057 0,0.24943 0.0984,0.27203 0.28335,0.26732 0.45071,0.49887 0.0527,0.0731 0.0478,0.17105 0.09,0.24943 0.55541,1.02463 -0.25132,-0.77856 0.27042,0.66517 0.11659,0.32292 0.36452,0.53328 0.54085,0.83145 0.0775,0.1311 0.12352,0.27597 0.18027,0.41572 0.0334,0.082 0.043,0.17334 0.0901,0.24945 0.0747,0.12032 0.20323,0.20863 0.27042,0.33257 0.0269,0.0495 0,0.11088 0,0.16629 0,0.0277 -0.0166,0.0602 0,0.0832 0.0471,0.0652 0.12019,0.11101 0.18028,0.1663 0.0299,0.0278 0.0799,0.0453 0.0901,0.0832 0.0218,0.0807 -0.0499,0.18024 0,0.24941 0.0333,0.0462 0.13777,-0.0393 0.18027,0 0.0426,0.0393 -0.0269,0.1166 0,0.1663 0.0133,0.0248 0.0602,0 0.0901,0 0.22276,0 0.13776,-0.0393 0.27039,0.0832"
       id="path8082-9"
       inkscape:connector-curvature="0" />
    <path
       style="fill:none;fill-rule:evenodd;stroke:#000000;stroke-width:1.80957472;stroke-linecap:butt;stroke-linejoin:miter;stroke-miterlimit:4;stroke-dasharray:none;stroke-opacity:1"
       d="m 109.35032,-166.12446 c 0.0382,0.19374 -0.023,0.39403 0,0.58878 0.0737,0.62634 0.33145,1.18549 0.55419,1.76638 0.1154,0.29441 0.23092,0.58881 0.34638,0.88321 0.0692,0.26985 0.11008,0.54988 0.20782,0.80959 0.0429,0.11393 0.14161,0.1939 0.20781,0.29439 0.0954,0.14494 0.18771,0.29234 0.27712,0.4416 0.0723,0.12072 0.14761,0.24004 0.20783,0.36799 0.21817,0.46359 0.15002,0.49516 0.41563,0.88319 0.10609,0.15496 0.25359,0.2773 0.34638,0.44159 0.049,0.0866 0.022,0.20659 0.0691,0.29441 0.0486,0.0902 0.16402,0.12777 0.20783,0.2208 0.031,0.0658 -0.0218,0.15099 0,0.2208 0.0756,0.24079 0.21776,0.23662 0.34639,0.44158 0.0405,0.0647 0.0367,0.15142 0.0692,0.2208 0.42685,0.907 -0.19314,-0.68918 0.20782,0.58881 0.0896,0.28583 0.28015,0.47205 0.41566,0.73599 0.0595,0.11606 0.0949,0.24428 0.13854,0.368 0.0257,0.0725 0.033,0.15343 0.0692,0.22079 0.0574,0.10648 0.15618,0.18469 0.20782,0.29441 0.0206,0.0438 0,0.0981 0,0.14718 0,0.0245 -0.0133,0.0532 0,0.0736 0.0362,0.0578 0.0924,0.0982 0.13856,0.14719 0.023,0.0246 0.0613,0.0401 0.0692,0.0736 0.0168,0.0713 -0.0383,0.15955 0,0.22078 0.0255,0.0409 0.10581,-0.0347 0.13853,0 0.0327,0.0347 -0.0206,0.10328 0,0.14721 0.0106,0.022 0.0462,0 0.0692,0 0.17119,0 0.10595,-0.0347 0.20781,0.0736"
       id="path8082-0-7"
       inkscape:connector-curvature="0" />
    <path
       style="fill:none;fill-rule:evenodd;stroke:#000000;stroke-width:2.08721876;stroke-linecap:butt;stroke-linejoin:miter;stroke-miterlimit:4;stroke-dasharray:none;stroke-opacity:1"
       d="m 124.13193,-225.49351 c 0.0441,0.22325 -0.0266,0.45405 0,0.67845 0.085,0.72174 0.38268,1.36605 0.63987,2.03542 0.13327,0.33924 0.2666,0.67847 0.39989,1.01771 0.08,0.31096 0.12698,0.63363 0.23996,0.93289 0.0494,0.13137 0.16348,0.22343 0.23992,0.33922 0.11008,0.16702 0.21673,0.33686 0.31995,0.50886 0.0834,0.13901 0.17042,0.2766 0.23995,0.42402 0.25188,0.53421 0.17321,0.57059 0.47988,1.01772 0.12245,0.17856 0.29278,0.31954 0.39991,0.50884 0.0566,0.1 0.0254,0.23807 0.0799,0.33924 0.0562,0.10408 0.18935,0.14713 0.23993,0.25443 0.0358,0.0757 -0.0253,0.17399 0,0.25442 0.0872,0.27747 0.25144,0.27267 0.39994,0.50886 0.0467,0.0745 0.0423,0.17448 0.0799,0.25443 0.49283,1.04511 -0.223,-0.79416 0.23995,0.67846 0.10342,0.32937 0.32343,0.54396 0.47989,0.84809 0.0688,0.1337 0.10954,0.28149 0.15996,0.42404 0.0297,0.0837 0.0382,0.1768 0.08,0.25444 0.0661,0.12272 0.18033,0.2128 0.23995,0.33923 0.0238,0.0504 0,0.113 0,0.1696 0,0.0282 -0.0148,0.0614 0,0.0848 0.0418,0.0666 0.10674,0.11313 0.15997,0.16962 0.0266,0.0283 0.0709,0.0462 0.08,0.0848 0.0193,0.0823 -0.0443,0.18386 0,0.25441 0.0295,0.0471 0.12219,-0.0399 0.15996,0 0.0378,0.0401 -0.0238,0.11899 0,0.16962 0.012,0.0253 0.0534,0 0.08,0 0.19765,0 0.12218,-0.0399 0.23992,0.0848"
       id="path8082-1-3"
       inkscape:connector-curvature="0" />
    <g
       id="g8296"
       transform="translate(-755.75,-54.750001)">
      <rect
         transform="matrix(1,0,-0.21958093,0.97559429,0,0)"
         ry="6.7835097"
         rx="4.6353021"
         y="82.912315"
         x="1016.2307"
         height="63.829594"
         width="174.32103"
         id="rect7968-6-8-8"
         style="opacity:1;fill:#c3f9a6;fill-opacity:1;stroke:#000000;stroke-width:2.23153543;stroke-miterlimit:4;stroke-dasharray:none;stroke-opacity:1" />
      <rect
         transform="matrix(1,0,-0.21958093,0.97559429,0,0)"
         ry="6.7835097"
         rx="4.6353021"
         y="72.680092"
         x="1008.9926"
         height="63.829594"
         width="174.32103"
         id="rect7968-6-0"
         style="opacity:1;fill:#c3f9a6;fill-opacity:1;stroke:#000000;stroke-width:2.23153543;stroke-miterlimit:4;stroke-dasharray:none;stroke-opacity:1" />
      <text
         sodipodi:linespacing="125%"
         id="text7985-9"
         y="119.02922"
         x="1034.521"
         style="font-style:normal;font-weight:normal;font-size:26.79486275px;line-height:125%;font-family:sans-serif;letter-spacing:0px;word-spacing:0px;fill:#000000;fill-opacity:1;stroke:none;stroke-width:1px;stroke-linecap:butt;stroke-linejoin:miter;stroke-opacity:1"
         xml:space="preserve"><tspan
           style="font-style:normal;font-variant:normal;font-weight:normal;font-stretch:extra-condensed;font-size:43.84613419px;font-family:'Gill Sans MT Ext Condensed Bold';-inkscape-font-specification:'Gill Sans MT Ext Condensed Bold, Extra-Condensed';letter-spacing:2.1825633px;fill:#ffffff;fill-opacity:1"
           y="119.02922"
           x="1034.521"
           id="tspan7987-5"
           sodipodi:role="line">SKILLS</tspan></text>
      <path
         inkscape:connector-curvature="0"
         id="path8082-13"
         d="m 981.80697,130.39814 c 0.0496,0.21887 -0.0299,0.44514 0,0.66514 0.096,0.70759 0.43127,1.33925 0.7211,1.99549 0.15023,0.33258 0.30048,0.66517 0.45071,0.99776 0.0901,0.30485 0.14319,0.62119 0.27042,0.91458 0.0558,0.12871 0.18426,0.21904 0.2704,0.33257 0.12419,0.16375 0.24424,0.33026 0.36057,0.49888 0.094,0.13634 0.19208,0.27118 0.27043,0.41571 0.28388,0.52372 0.19521,0.55939 0.54083,0.99775 0.13805,0.17506 0.32995,0.31326 0.4507,0.49887 0.0638,0.098 0.0286,0.23338 0.09,0.33258 0.0632,0.10195 0.21341,0.14428 0.27042,0.24944 0.0403,0.0743 -0.0285,0.17057 0,0.24943 0.0984,0.27203 0.28335,0.26732 0.45071,0.49887 0.0527,0.0731 0.0478,0.17105 0.09,0.24943 0.55541,1.02463 -0.25132,-0.77857 0.27042,0.66517 0.11659,0.32291 0.36452,0.53327 0.54085,0.83145 0.0775,0.1311 0.12352,0.27596 0.18027,0.41572 0.0334,0.082 0.043,0.17334 0.0901,0.24944 0.0747,0.12033 0.20323,0.20864 0.27042,0.33258 0.0269,0.0495 0,0.11087 0,0.16628 0,0.0277 -0.0166,0.0602 0,0.0832 0.0471,0.0652 0.12019,0.111 0.18028,0.16629 0.03,0.0278 0.0799,0.0453 0.0901,0.0832 0.0218,0.0807 -0.0499,0.18025 0,0.24942 0.0333,0.0462 0.13777,-0.0393 0.18027,0 0.0426,0.0393 -0.0269,0.11659 0,0.16629 0.0133,0.0248 0.0602,0 0.0901,0 0.22276,0 0.13776,-0.0393 0.27039,0.0832"
         style="fill:none;fill-rule:evenodd;stroke:#000000;stroke-width:2.19395947;stroke-linecap:butt;stroke-linejoin:miter;stroke-miterlimit:4;stroke-dasharray:none;stroke-opacity:1" />
      <path
         inkscape:connector-curvature="0"
         id="path8082-0-9"
         d="m 1150.1706,131.40496 c 0.038,0.19374 -0.023,0.39403 0,0.58878 0.074,0.62635 0.3315,1.1855 0.5542,1.76639 0.1154,0.2944 0.2309,0.58881 0.3464,0.88321 0.069,0.26985 0.1101,0.54988 0.2078,0.80958 0.043,0.11393 0.1416,0.1939 0.2078,0.29439 0.095,0.14495 0.1877,0.29234 0.2771,0.4416 0.072,0.12072 0.1476,0.24005 0.2079,0.368 0.2181,0.46358 0.15,0.49515 0.4156,0.88318 0.1061,0.15497 0.2536,0.2773 0.3464,0.4416 0.049,0.0867 0.022,0.20658 0.069,0.2944 0.049,0.0903 0.164,0.12778 0.2078,0.2208 0.031,0.0657 -0.022,0.15099 0,0.2208 0.076,0.24079 0.2178,0.23663 0.3464,0.44159 0.041,0.0647 0.037,0.15141 0.069,0.2208 0.4269,0.90699 -0.1931,-0.68918 0.2078,0.58881 0.09,0.28583 0.2802,0.47205 0.4157,0.73599 0.06,0.11606 0.095,0.24427 0.1385,0.36799 0.026,0.0725 0.033,0.15344 0.069,0.2208 0.057,0.10648 0.1562,0.18469 0.2079,0.2944 0.021,0.0438 0,0.0981 0,0.14719 0,0.0245 -0.013,0.0532 0,0.0736 0.036,0.0578 0.092,0.0982 0.1385,0.1472 0.023,0.0246 0.061,0.0401 0.069,0.0736 0.017,0.0713 -0.038,0.15955 0,0.22077 0.025,0.0409 0.1058,-0.0347 0.1385,0 0.033,0.0347 -0.021,0.10329 0,0.14721 0.011,0.022 0.046,0 0.069,0 0.1712,0 0.106,-0.0347 0.2079,0.0736"
         style="fill:none;fill-rule:evenodd;stroke:#000000;stroke-width:1.80957472;stroke-linecap:butt;stroke-linejoin:miter;stroke-miterlimit:4;stroke-dasharray:none;stroke-opacity:1" />
      <path
         inkscape:connector-curvature="0"
         id="path8082-1-6"
         d="m 1164.9522,72.035919 c 0.044,0.223248 -0.027,0.454044 0,0.67845 0.085,0.721735 0.3827,1.366046 0.6399,2.035419 0.1333,0.339232 0.2666,0.678464 0.3999,1.017709 0.08,0.310962 0.127,0.633623 0.2399,0.932885 0.049,0.131369 0.1635,0.223435 0.24,0.339218 0.11,0.167028 0.2167,0.336863 0.3199,0.508868 0.083,0.13901 0.1704,0.276595 0.24,0.424017 0.2518,0.53421 0.1732,0.570586 0.4798,1.017722 0.1225,0.178554 0.2928,0.319534 0.4,0.508842 0.057,0.09996 0.025,0.238062 0.08,0.339232 0.056,0.104084 0.1893,0.147128 0.2399,0.254434 0.036,0.07573 -0.025,0.173988 0,0.25442 0.087,0.277474 0.2514,0.272669 0.3999,0.508855 0.047,0.07454 0.042,0.174481 0.08,0.254434 0.4929,1.045114 -0.223,-0.794155 0.24,0.678464 0.1034,0.329369 0.3234,0.543953 0.4799,0.848086 0.069,0.133699 0.1095,0.281494 0.1599,0.424044 0.03,0.08372 0.038,0.176796 0.08,0.254434 0.066,0.122718 0.1804,0.2128 0.24,0.339232 0.024,0.05044 0,0.113002 0,0.169596 0,0.02822 -0.015,0.06136 0,0.08478 0.042,0.06655 0.1067,0.113135 0.1599,0.169623 0.027,0.02835 0.071,0.04619 0.08,0.08478 0.019,0.08226 -0.044,0.183864 0,0.254407 0.029,0.04712 0.1222,-0.03993 0.16,0 0.038,0.04006 -0.024,0.118991 0,0.169623 0.012,0.02529 0.053,0 0.08,0 0.1977,0 0.1222,-0.03993 0.2399,0.08478"
         style="fill:none;fill-rule:evenodd;stroke:#000000;stroke-width:2.08721876;stroke-linecap:butt;stroke-linejoin:miter;stroke-miterlimit:4;stroke-dasharray:none;stroke-opacity:1" />
    </g>
  </g>
</svg>
